<?xml version="1.0" encoding="utf-8"?>
<!-- Generator: Adobe Illustrator 20.1.0, SVG Export Plug-In . SVG Version: 6.00 Build 0)  -->
<svg version="1.1" xmlns="http://www.w3.org/2000/svg" xmlns:xlink="http://www.w3.org/1999/xlink" x="0px" y="0px"
	 viewBox="0 0 33.1 29.1" style="enable-background:new 0 0 33.1 29.1;" xml:space="preserve">
<style type="text/css">
	.st0{display:none;}
	.st1{display:inline;}
</style>
<g id="Layer_1" class="st0">
	<g class="st1">
		<path d="M22.9,1.7V6h-2.5c-0.9,0-1.6,0.2-1.9,0.6c-0.3,0.4-0.5,1-0.5,1.7v3.1h4.7l-0.6,4.8H18v12.3h-5V16.1H8.9v-4.8H13V7.8
			c0-2,0.6-3.6,1.7-4.7s2.6-1.7,4.5-1.7C20.8,1.5,22,1.6,22.9,1.7z"/>
	</g>
</g>
<g id="Layer_6" class="st0">
	<g class="st1">
		<path d="M10,5.5c0,0.8-0.3,1.4-0.8,2C8.6,8,7.9,8.3,7,8.3h0C6.1,8.3,5.3,8,4.8,7.5C4.3,7,4,6.3,4,5.5c0-0.8,0.3-1.5,0.8-2
			C5.4,3,6.1,2.8,7,2.8c0.9,0,1.6,0.3,2.2,0.8C9.7,4.1,10,4.7,10,5.5z M9.6,10.5v16H4.3v-16H9.6z M28.9,17.3v9.2h-5.3v-8.6
			c0-1.1-0.2-2-0.7-2.7s-1.1-1-2-1c-0.7,0-1.2,0.2-1.7,0.6s-0.8,0.8-1,1.4c-0.1,0.3-0.2,0.8-0.2,1.3v8.9h-5.3c0-4.3,0-7.8,0-10.5
			c0-2.7,0-4.3,0-4.8l0-0.8h5.3v2.3h0c0.2-0.3,0.4-0.6,0.7-0.9c0.2-0.3,0.5-0.5,0.9-0.8c0.4-0.3,0.9-0.5,1.4-0.7
			c0.6-0.2,1.2-0.3,1.9-0.3c1.8,0,3.3,0.6,4.5,1.8C28.3,13.2,28.9,15,28.9,17.3z"/>
	</g>
</g>
<g id="Layer_5" class="st0">
	<g class="st1">
		<path d="M30.9,10.1V19c0,0.4-0.2,0.8-0.6,1l-13.3,8.8C16.9,29,16.6,29,16.4,29s-0.5-0.1-0.7-0.2L2.4,20c-0.4-0.2-0.6-0.6-0.6-1
			v-8.8c0-0.4,0.2-0.8,0.6-1l13.3-8.8C15.9,0.1,16.2,0,16.4,0s0.5,0.1,0.7,0.2l13.3,8.8C30.7,9.3,30.9,9.7,30.9,10.1z M4.4,16.6
			l3.1-2.1l-3.1-2.1V16.6z M9.7,13l5.4-3.6V3.6l-9.8,6.5L9.7,13z M5.4,19l9.8,6.5v-5.8L9.7,16L5.4,19z M16.4,17.5l4.4-2.9l-4.4-2.9
			L12,14.5L16.4,17.5z M23,13l4.4-2.9l-9.8-6.5v5.8L23,13z M17.6,25.5l9.8-6.5L23,16l-5.4,3.6V25.5z M25.3,14.5l3.1,2.1v-4.2
			L25.3,14.5z"/>
	</g>
</g>
<g id="Layer_4">
	<g>
		<path d="M29,14.6c0,2.5,0,4.2-0.1,5.1c-0.1,2.2-0.8,4-2,5.2s-3,1.9-5.2,2C20.7,27,19,27,16.5,27c-2.5,0-4.2,0-5.1-0.1
			c-2.2-0.1-4-0.8-5.2-2c-1.2-1.2-1.9-3-2-5.2c-0.1-0.9-0.1-2.7-0.1-5.1s0-4.2,0.1-5.1c0.1-2.2,0.8-4,2-5.2c1.2-1.2,3-1.9,5.2-2
			c0.9-0.1,2.7-0.1,5.1-0.1c2.5,0,4.2,0,5.1,0.1c2.2,0.1,4,0.8,5.2,2s1.9,3,2,5.2C28.9,10.4,29,12.2,29,14.6z M17.8,4.4
			c-0.8,0-1.2,0-1.2,0c-0.1,0-0.5,0-1.2,0s-1.3,0-1.7,0c-0.4,0-0.9,0-1.6,0c-0.7,0-1.2,0.1-1.7,0.2C9.9,4.7,9.5,4.8,9.2,4.9
			c-0.5,0.2-1,0.5-1.4,0.9C7.4,6.3,7.1,6.8,6.8,7.3C6.7,7.6,6.6,8,6.5,8.4s-0.1,1-0.2,1.7c0,0.7,0,1.2,0,1.6c0,0.4,0,1,0,1.7
			c0,0.8,0,1.2,0,1.2c0,0.1,0,0.5,0,1.2c0,0.8,0,1.3,0,1.7c0,0.4,0,0.9,0,1.6c0,0.7,0.1,1.2,0.2,1.7s0.2,0.8,0.3,1.2
			c0.2,0.5,0.5,1,0.9,1.4s0.9,0.7,1.4,0.9c0.3,0.1,0.7,0.2,1.2,0.3c0.5,0.1,1,0.1,1.7,0.2s1.2,0,1.6,0c0.4,0,1,0,1.7,0
			c0.8,0,1.2,0,1.2,0c0.1,0,0.5,0,1.2,0c0.8,0,1.3,0,1.7,0c0.4,0,0.9,0,1.6,0s1.2-0.1,1.7-0.2c0.5-0.1,0.8-0.2,1.2-0.3
			c0.5-0.2,1-0.5,1.4-0.9c0.4-0.4,0.7-0.9,0.9-1.4c0.1-0.3,0.2-0.7,0.3-1.2c0.1-0.5,0.1-1,0.2-1.7c0-0.7,0-1.2,0-1.6
			c0-0.4,0-1,0-1.7c0-0.7,0-1.2,0-1.2c0-0.1,0-0.5,0-1.2c0-0.7,0-1.3,0-1.7c0-0.4,0-0.9,0-1.6c0-0.7-0.1-1.2-0.2-1.7
			c-0.1-0.5-0.2-0.8-0.3-1.2c-0.2-0.5-0.5-1-0.9-1.4c-0.4-0.4-0.9-0.7-1.4-0.9c-0.3-0.1-0.7-0.2-1.2-0.3c-0.5-0.1-1-0.1-1.7-0.2
			c-0.7,0-1.2,0-1.6,0C19.1,4.4,18.5,4.4,17.8,4.4z M21,10.1c1.2,1.2,1.9,2.7,1.9,4.5s-0.6,3.3-1.9,4.5c-1.2,1.2-2.7,1.9-4.5,1.9
			c-1.8,0-3.3-0.6-4.5-1.9c-1.2-1.2-1.9-2.7-1.9-4.5s0.6-3.3,1.9-4.5c1.2-1.2,2.7-1.9,4.5-1.9C18.3,8.2,19.8,8.9,21,10.1z
			 M19.5,17.6c0.8-0.8,1.2-1.8,1.2-2.9s-0.4-2.1-1.2-2.9c-0.8-0.8-1.8-1.2-2.9-1.2c-1.1,0-2.1,0.4-2.9,1.2s-1.2,1.8-1.2,2.9
			s0.4,2.1,1.2,2.9c0.8,0.8,1.8,1.2,2.9,1.2C17.7,18.8,18.7,18.4,19.5,17.6z M24.2,6.9c0.3,0.3,0.4,0.6,0.4,1.1
			c0,0.4-0.1,0.8-0.4,1.1c-0.3,0.3-0.6,0.4-1.1,0.4S22.4,9.3,22.1,9c-0.3-0.3-0.4-0.6-0.4-1.1c0-0.4,0.1-0.8,0.4-1.1
			c0.3-0.3,0.6-0.4,1.1-0.4S23.9,6.6,24.2,6.9z"/>
	</g>
</g>
<g id="Layer_3" class="st0">
	<g class="st1">
		<path d="M31.1,5.9c0,0.9-0.3,1.7-0.8,2.4c-0.5,0.8-1.2,1.4-2,2c-4.1,2.8-6.6,4.6-7.6,5.3c-0.1,0.1-0.3,0.2-0.7,0.5
			c-0.4,0.3-0.6,0.5-0.9,0.6s-0.5,0.3-0.8,0.5s-0.6,0.3-0.9,0.4c-0.3,0.1-0.6,0.1-0.8,0.1h0h0c-0.2,0-0.5,0-0.8-0.1
			c-0.3-0.1-0.6-0.2-0.9-0.4s-0.6-0.4-0.8-0.5c-0.2-0.2-0.5-0.4-0.9-0.6c-0.4-0.3-0.6-0.4-0.7-0.5c-1-0.7-2.4-1.7-4.2-3
			s-3-2-3.3-2.3C4.2,9.9,3.5,9.3,3,8.5C2.4,7.7,2.1,7,2.1,6.3c0-0.8,0.2-1.5,0.7-2.1s1.1-0.8,1.9-0.8h23.8c0.7,0,1.3,0.3,1.8,0.8
			C30.8,4.6,31.1,5.2,31.1,5.9z M31.1,10.7v12.8c0,0.7-0.3,1.3-0.8,1.8c-0.5,0.5-1.1,0.8-1.8,0.8H4.7c-0.7,0-1.3-0.3-1.8-0.8
			c-0.5-0.5-0.8-1.1-0.8-1.8V10.7c0.5,0.5,1,1,1.6,1.4c3.9,2.7,6.6,4.5,8,5.6c0.6,0.5,1.1,0.8,1.5,1.1s0.9,0.5,1.5,0.8
			c0.6,0.3,1.2,0.4,1.8,0.4h0h0c0.6,0,1.1-0.1,1.8-0.4c0.6-0.3,1.1-0.5,1.5-0.8c0.4-0.3,0.9-0.6,1.5-1.1c1.8-1.3,4.5-3.2,8.1-5.6
			C30.1,11.7,30.6,11.2,31.1,10.7z"/>
	</g>
</g>
<g id="Layer_2" class="st0">
	<g class="st1">
		<path d="M0,3.6h9.6c0.9,0,1.8,0.1,2.5,0.2c0.7,0.2,1.4,0.4,2,0.8c0.6,0.4,1.1,0.9,1.5,1.6s0.5,1.5,0.5,2.5c0,2-0.9,3.4-2.8,4.3
			c1.2,0.3,2.2,1,2.8,1.9c0.6,0.9,0.9,2,0.9,3.3c0,0.8-0.1,1.5-0.4,2.2c-0.3,0.7-0.6,1.2-1.1,1.7s-1,0.8-1.6,1.1
			c-0.6,0.3-1.3,0.5-2,0.7S10.6,24,9.9,24H0V3.6z M4.5,11.9H9c0.8,0,1.5-0.2,2-0.6c0.5-0.4,0.7-1,0.7-1.8c0-1.6-1-2.3-3.1-2.3H4.5
			V11.9z M4.5,20.6h4.8c2.2,0,3.3-0.9,3.3-2.7c0-1.9-1.1-2.9-3.2-2.9H4.5V20.6z M26.1,21.4c0.7,0,1.3-0.2,2-0.5
			c0.6-0.3,1-0.8,1.2-1.4h3.6c-1.1,3.3-3.4,5-6.9,5c-2.3,0-4.1-0.7-5.5-2.1c-1.4-1.4-2-3.3-2-5.6c0-2.2,0.7-4.1,2.1-5.6
			c1.4-1.5,3.2-2.2,5.4-2.2c1.5,0,2.8,0.4,3.9,1.1c1.1,0.7,1.9,1.7,2.5,2.9c0.5,1.2,0.8,2.5,0.8,4c0,0.2,0,0.4,0,0.8H22.5
			c0,1.2,0.3,2.1,0.9,2.8C24,21.1,24.9,21.4,26.1,21.4z M29.9,5h-8.3v2h8.3V5z M25.8,11.9c-1,0-1.8,0.3-2.4,0.8
			c-0.6,0.6-0.9,1.3-1,2.3h6.6C28.9,13,27.8,11.9,25.8,11.9z"/>
	</g>
</g>
</svg>
